/* XPM */
static char *_4_5[] = {
/* columns rows colors chars-per-pixel */
"64 64 29 1 ",
"  c None",
". c #2E110E",
"X c #321510",
"o c #23341E",
"O c #0F2D28",
"+ c #41281D",
"@ c #52281F",
"# c #4E3427",
"$ c #54392C",
"% c #5C3434",
"& c #5B3F31",
"* c #1B473E",
"= c #405736",
"- c #6E4D3C",
"; c #246544",
": c #277345",
"> c #775747",
", c #7E5D4C",
"< c #557142",
"1 c #97593E",
"2 c #8D6B4E",
"3 c #45AD38",
"4 c #3B9742",
"5 c #72934F",
"6 c #A0B35A",
"7 c #A98860",
"8 c #BFA06B",
"9 c #D7BE75",
"0 c #EFDD93",
/* pixels */
"                                         O                      ",
"                                        O4O                     ",
"                                      OO444O                    ",
"                                     O3*444O                    ",
"                                   OO33344:3O                   ",
"                                  O::33334333O                  ",
"                            +++++O:::33334333O                  ",
"                           +899998O:::33344344O                 ",
"                          +899998O;;4443:334444O                ",
"                         +8999009O;4444:433344O                 ",
"                        +899900099O;44::4433*O                  ",
"                        +8990000099OO;::4444;O                  ",
"                        +899000000999O::4444;O                  ",
"                        +8999000000998O:;44;*O                  ",
"                        +8899900009998@OO;;*O                   ",
"                        +7889999999988@1%OOO                    ",
"                        +78889999998887@X XX                    ",
"                        +78728899882787@X @X                    ",
"                         +787--99--787+@X @X                    ",
"                          +787-99-787+1@X @X                    ",
"                         +7-77-88-77-@@XX @X                    ",
"                 O      +887---88---7@X#X @X                    ",
"                O4O     +898877--7788X2#X  X                    ",
"             O O444O    +899888888898X2#X  X                    ",
"           OO3O44444O ++#899999999988X2#X55X   OO               ",
"          O:333:4444O+22#889999999888X2#X++X5OO33OOO            ",
"         O:::3::444;*O22#888999988888X2#X22+O43333::O           ",
"         O:::444:4;33;O2#888888888887X2#X22O443333:::O          ",
"         O;:44444:3333;O#88888888887722#2OO*44433::44O          ",
"         O;;444444433;;O#88-,277777722#2O::**4444:4444O         ",
"      5 55O;;444:4444;O#88&-277777722#2O::::3:44334444O55       ",
"       5555O;;:::44444O#87&222222222&2+O;::333:333344O<555      ",
"   55 55<5<=OO::::444O7#77&&&&&&&&&&272O:;4434::3344::O<5555    ",
"    55555<=OXO::::;;O727#&227777777778O::44444:4444::::O<55     ",
"     5<<<=O4O%O::;;;O278$2278877778888O::4444::4444:::;O<555    ",
"     X..OO444O%O;;;*O887$27778888888887O:*44:;:4444::;;;O==<555 ",
"    555O44:44*O2O**O2887$27777888888877$O::::;::44::::;*O<555   ",
"      O44444;::O2OO28877$22777778888777O:::::;;::;::::;OX<X5    ",
"     O;4444:4:::O2288877$-2277777777777$O:::;*;;;;;::;O%1@<5    ",
"     O;;44:444:O77288877$--227777777772+O;;;**O*;;;;OOX1@<5     ",
"     5O;;::444;;O72988877$--2222227777$72O***O%O***O2X2X%X      ",
"    5<O*::::4;;;O729888777$--222>$$777$772OOO%1XOOOX2XX2X%XXXX5 ",
"    5<O*;::;**OO22729887777$-------$77$777222@X22X%@27X2+X..<5  ",
"  55<=O**;;;*O22777298887777$$$$$$$$22$77777@1X272X@277X+<<<5   ",
"   55<XO****OX877787298887777777777$22$77787@X2772X@--22XX55    ",
"    55.=OOOO%@77-7887299887777777777$$7778--@X7772X@--22+=55    ",
"    5.5=XX=X1@2---77772299887777777777788---XX-7772X@-22+<555   ",
"   5555<X.=X@22-----7877229988888888888-----XX---+2XX-22+<=<55  ",
"  5 55<<X<=X@22+---7888877229999999922------XX---++.X+22+<55    ",
"     55<.5<XX2+=+-+2788887272222222277----++=X---+==.=++<555    ",
"      5<.5<.X+<<=+772788877877772777877+-+=<<X=+-+<<.X<<555     ",
"       .55<.X<5<+2788778778888877788887++=<55X<=-<55<.555       ",
"      55 55<.55<+2788872778888777778887+=<555.<5<5555<.X        ",
"          5<.X5<+-2788872222777222777777+<<55.555  5 5555       ",
"          55.X5<+---78872788887727888887+<55X.<5      5         ",
"           55.X<+-o--7722788888777888877+<55X.<<5               ",
"          5555.5<o6o---2777888872777777--+<5X<5555              ",
"         55  5<.<=5o------o777722277-----+<<.<5                 ",
"              5<.<55++---o6o----------o--+<.<5                  ",
"               5<.55<<+++-o5o-o------o6o+<<<55                  ",
"              5555<55<<==+o5oo6o++++++<555<555                  ",
"             5    5 555<<<55<<55===<<<555555  5                 ",
"                      555<55555555<55555555                     ",
"                         5555 5555555 55                        "
};