/* XPM */
static char *_4_2[] = {
/* columns rows colors chars-per-pixel */
"64 64 11 1 ",
"  c None",
". c #0F2D28",
"X c #1B473E",
"o c #405736",
"O c #246544",
"+ c #277345",
"@ c #557142",
"# c #40A23D",
"$ c #4AB734",
"% c #368C47",
"& c #72934F",
/* pixels */
"                            ..  ..    ..                        ",
"                            ..  ..    ..                        ",
"                      ..  ..%%..$$....%%..                      ",
"                      ..  ..%%..$$....%%..                      ",
"                  ....%%....%%%%$$%%%%OOOO....                  ",
"                  ....%%....%%%%$$%%%%OOOO....                  ",
"                  ..OOOO%%%%$$%%$$##%%OO%%%%..                  ",
"                  ..OOOO%%%%$$%%$$##%%OO%%%%..                  ",
"                ..%%OO$$%%%%$$$$######%%%%OOOO....              ",
"                ..%%OO$$%%%%$$$$######%%%%OOOO....              ",
"          ......OOOO++++$$##$$$$$$##$$$$$$++++%%%%....          ",
"          ......OOOO++++$$##$$$$$$##$$$$$$++++%%%%....          ",
"          ..++XX######++######$$$$$$$$$$%%%%++OOOOXXOO..        ",
"          ..++XX######++######$$$$$$$$$$%%%%++OOOOXXOO..        ",
"            ..OOOO%%%%%%%%$$$$$$$$$$####%%######XXOO..          ",
"            ..OOOO%%%%%%%%$$$$$$$$$$####%%######XXOO..          ",
"          ....OO%%++++%%$$$$####$$$$######%%%%######XX..        ",
"          ....OO%%++++%%$$$$####$$$$######%%%%######XX..        ",
"      ....%%%%%%%%%%++%%%%%%######$$%%##$$$$%%%%OO++++++..      ",
"      ....%%%%%%%%%%++%%%%%%######$$%%##$$$$%%%%OO++++++..      ",
"    ..XXOOOO%%%%++++##%%%%$$##%%##$$$$%%##$$$$$$++OOXXXX..      ",
"    ..XXOOOO%%%%++++##%%%%$$##%%##$$$$%%##$$$$$$++OOXXXX..      ",
"      ..XXXXXXXX######%%$$++++%%$$##$$%%%%++++++%%++XXOOOO..    ",
"      ..XXXXXXXX######%%$$++++%%$$##$$%%%%++++++%%++XXOOOO..    ",
"        ....########%%%%++++%%%%%%$$++%%%%%%++++%%%%%%XX..      ",
"        ....########%%%%++++%%%%%%$$++%%%%%%++++%%%%%%XX..      ",
"    ......######%%OOOO++++++##%%++++$$OO%%%%%%++++%%%%%%%%..    ",
"    ......######%%OOOO++++++##%%++++$$OO%%%%%%++++%%%%%%%%..    ",
"  ..OOOOOOOOXX++++OOOO%%++++####++++++++OO%%%%OOOO++%%%%..      ",
"  ..OOOOOOOOXX++++OOOO%%++++####++++++++OO%%%%OOOO++%%%%..      ",
"    ..XXXXXX++++OOOO%%%%++####++++++++%%OOOOOO%%OO++OOXXOO..    ",
"    ..XXXXXX++++OOOO%%%%++####++++++++%%OOOOOO%%OO++OOXXOO..    ",
"      ..++++++OOXX%%%%++OO####++++OO++%%%%OOOOOO%%OO++++++..    ",
"      ..++++++OOXX%%%%++OO####++++OO++%%%%OOOOOO%%OO++++++..    ",
"    ..++++++XXXX%%%%%%OOOO##++++++OOOO%%%%OO++++OOXXXX++++++..  ",
"    ..++++++XXXX%%%%%%OOOO##++++++OOOO%%%%OO++++OOXXXX++++++..  ",
"      ........%%%%%%XXOOOO++%%++OOOOOOOO%%XXOO++++++XXXX....    ",
"      ........%%%%%%XXOOOO++%%++OOOOOOOO%%XXOO++++++XXXX....    ",
"          ..XXXXOOXX++OOOO%%%%++OOOO++OOXX%%XXOO++++++..        ",
"          ..XXXXOOXX++OOOO%%%%++OOOO++OOXX%%XXOO++++++..        ",
"        ..OOOOOOXX++OOOOXX%%%%OOXXOO++++OOXXXXXXXXOO++++..      ",
"        ..OOOOOOXX++OOOOXX%%%%OOXXOO++++OOXXXXXXXXOO++++..      ",
"      ..OOOO....++++OOXXXXOO%%OOXXXXOO++++XXXXXXOOOO....        ",
"      ..OOOO....++++OOXXXXOO%%OOXXXXOO++++XXXXXXOOOO....        ",
"        ......++++XXXXXXXXOO%%XXXXXXXX++++++XXXXXXOOXX..        ",
"        ......++++XXXXXXXXOO%%XXXXXXXX++++++XXXXXXOOXX..        ",
"      &&&&@@@@....OOXXXX..OOOOXXXXXXOOXX++++..XX..XXOOOO..      ",
"      &&&&@@@@....OOXXXX..OOOOXXXXXXOOXX++++..XX..XXOOOO..      ",
"        &&&&&&..OOXXXX..OOOOXXXX..XXOOOOXXXX++..oo......        ",
"        &&&&&&..OOXXXX..OOOOXXXX..XXOOOOXXXX++..oo......        ",
"          &&..XXXX......OOXXOOXX....OOOOOO....oo@@@@@@&&&&      ",
"          &&..XXXX......OOXXOOXX....OOOOOO....oo@@@@@@&&&&      ",
"        &&&&&&....@@@@oo..OOOO..@@oo..OOOO..oo@@&&&&&&&&        ",
"        &&&&&&....@@@@oo..OOOO..@@oo..OOOO..oo@@&&&&&&&&        ",
"      &&&&&&&&@@@@&&@@..OOOO..@@&&@@oo....XX..&&&&&&&&          ",
"      &&&&&&&&@@@@&&@@..OOOO..@@&&@@oo....XX..&&&&&&&&          ",
"            &&&&&&&&&&..OO..@@&&&&&&&&@@@@....&&&&&&            ",
"            &&&&&&&&&&..OO..@@&&&&&&&&@@@@....&&&&&&            ",
"                &&&&&&....&&&&&&&&&&&&&&&&&&&&&&&&              ",
"                &&&&&&....&&&&&&&&&&&&&&&&&&&&&&&&              ",
"              &&&&    &&&&  &&&&&&&&&&    &&      &&            ",
"              &&&&    &&&&  &&&&&&&&&&    &&      &&            ",
"                                                                ",
"                                                                "
};