/* XPM */
static char *b0fee34b8b074542808dc57d337a3502hoX3Nrc16QqptHRp[] = {
/* columns rows colors chars-per-pixel */
"64 68 151 2 ",
"   c None",
".  c #000001",
"X  c #0B0604",
"o  c #0E0905",
"O  c #0A0A0D",
"+  c #110B06",
"@  c #150E08",
"#  c #1C120C",
"$  c #070C17",
"%  c #0A0C12",
"&  c #070F1F",
"*  c #110F10",
"=  c #0E101A",
"-  c #161516",
";  c #23150C",
":  c #26190F",
">  c #201614",
",  c #261B14",
"<  c #2B1C12",
"1  c #241F1A",
"2  c #2B1F19",
"3  c #311E11",
"4  c #27231F",
"5  c #2A221C",
"6  c #332114",
"7  c #392515",
"8  c #3B2718",
"9  c #3C281B",
"0  c #32231D",
"q  c #0B1424",
"w  c #0D1F3F",
"e  c #192134",
"r  c #2B2520",
"t  c #2E2922",
"y  c #302B23",
"u  c #2B2B36",
"i  c #402717",
"p  c #432C1A",
"a  c #482E1B",
"s  c #4D321E",
"d  c #50341F",
"f  c #452F24",
"g  c #47342A",
"h  c #49372D",
"j  c #4E3C2D",
"k  c #523621",
"l  c #573A23",
"z  c #593B27",
"x  c #543929",
"c  c #5B3C28",
"v  c #523628",
"b  c #494136",
"n  c #5C4536",
"m  c #65452E",
"M  c #6D4E3A",
"N  c #6B4A33",
"B  c #714D35",
"V  c #6E523A",
"C  c #75523B",
"Z  c #7C563E",
"A  c #79543B",
"S  c #112751",
"D  c #393C46",
"F  c #3D3D4A",
"G  c #1B3B71",
"H  c #1A3C78",
"J  c #24406A",
"K  c #48444B",
"L  c #5F4C41",
"P  c #534745",
"I  c #655344",
"U  c #685D4D",
"Y  c #695447",
"T  c #795F46",
"R  c #7A5F48",
"E  c #79634D",
"W  c #786854",
"Q  c #405070",
"!  c #656267",
"~  c #6F6D7A",
"^  c #845D44",
"/  c #85624C",
"(  c #8D6349",
")  c #91664B",
"_  c #8B6A53",
"`  c #9C6F53",
"'  c #97755C",
"]  c #99745A",
"[  c #9E7558",
"{  c #A17356",
"}  c #A57558",
"|  c #A7785B",
" . c #AB7B5D",
".. c #827460",
"X. c #8D7568",
"o. c #957C65",
"O. c #887E70",
"+. c #927C7A",
"@. c #A47E62",
"#. c #A87B60",
"$. c #90816B",
"%. c #9B846C",
"&. c #9B8770",
"*. c #A2866A",
"=. c #B38D6F",
"-. c #A38E76",
";. c #AB987E",
":. c #A99276",
">. c #B59174",
",. c #B6997C",
"<. c #2E5086",
"1. c #32568E",
"2. c #35598F",
"3. c #3D5C8D",
"4. c #224F95",
"5. c #23519B",
"6. c #325E9E",
"7. c #275BA8",
"8. c #285EAB",
"9. c #325EA0",
"0. c #2E62AE",
"q. c #2A62B1",
"w. c #3569B2",
"e. c #3A6DB5",
"r. c #496389",
"t. c #566483",
"y. c #426090",
"u. c #577096",
"i. c #697690",
"p. c #787E97",
"a. c #4672AE",
"s. c #5C78A8",
"d. c #807C85",
"f. c #7D839A",
"g. c #7889A1",
"h. c #6F8AB5",
"j. c #6984B0",
"k. c #8F8C8D",
"l. c #82879E",
"z. c #9D9891",
"x. c #A29381",
"c. c #B39E83",
"v. c #BDA386",
"b. c #BEA588",
"n. c #BFA88B",
"m. c #888DA2",
"M. c #8E93A6",
"N. c #969BAC",
"B. c #A1A5B3",
"V. c #C1AC8F",
"C. c #C1AB8E",
/* pixels */
"                                                                                                                                ",
"                                                                                                                                ",
"                                                                                                                                ",
"                                                                                                                                ",
"                                                                                                                                ",
"                                                                                                                                ",
"                                                                                                                                ",
"                                                                                                                                ",
"                                                                                                                                ",
"                                                                                                                                ",
"                                                                                                                                ",
"                                                                                                                                ",
"                                                                                                                                ",
"                                                . . . . . . . .     . . . .                                                     ",
"                                                . X @ # # # @ +     # @ X .                                                     ",
"                                                . + 6 p p 8 6 ; o @ 6 6 + . . . . .                                             ",
"                                                . + 6 a k k a 7 # ; p a : @ @ @ + o                                             ",
"                                                . X @ < s l k p 6 6 s k p 8 8 7 < ; o .                                         ",
"                                                X o o ; p l l k a a k l l l l k a 3 + .                                         ",
"                                              o ; < 6 9 s l l l d d l l l l l l d 7 + .                                         ",
"                                            X @ 6 p k l l l l l l l l l l l l l l p # X                                         ",
"                                          o # < p s k l l l l k s s k l l l l l l s 3 # o                                       ",
"                                        . + 3 p k l l l l l l d p p d l l l l l l k p 3 + .                                     ",
"                                        . + 7 s k l l k s s s a p p a s k l l l l k s 7 + .                                     ",
"                                        . @ p l l l l k p i i i i i i p k l l l l l l p @ .                                     ",
"                                        . @ p l l l l k p s m C C C C A Z B z s k l l p @ .                                     ",
"                                        . @ p l l l l k p z ( } } } } } } ( c p k l l p @ .                                     ",
"                                        . @ p l l k s l m Z `  . . . . . .` Z m l s k p @ .                                     ",
"                                        . @ p l l k p z ^ { |  . . . . . .| { ^ z p k p @ .                                     ",
"                                        . + 7 d l c m N C / @.=.=.=.=.@./ ^ ` ) c 8 7 < +                                       ",
"                                        . + 3 a k m ^ ^ v n %.v.v.v.v.%.n x ( ) c 3 # o                                         ",
"                                        . o ; 6 s B ] _ f h %.V.V.V.V.%.h f _ @.R j # .                                         ",
"                                            o ; p C *.o.g h %.V.V.V.V.%.h g o.,.:.W 5 .                                         ",
"                                            . # v / :.-.Y Y -.V.V.V.V.-.Y Y -.n.v.X.t .                                         ",
"                                            . , M [ ,.c.&.&.c.V.V.V.V.c.&.&.c.v.>._ 5 .                                         ",
"                                            . , M ] >.b.C.V.V.V.V.V.V.V.V.C.b.>.] M , .                                         ",
"                                              # 9 n ' >.b.V.V.V.V.V.V.V.V.b.>.' n 9 #                                           ",
"                                                . , C @.,.b.b.b.b.b.b.b.b.,.@.C , .                                             ",
"                                                . # x ^ @.>.>.>.>.>.>.>.>.@.^ x # .                                             ",
"                                                . + 3 z ( |  .#.#.#.#. .| ( z 3 + .                                             ",
"                                                . + 3 k B / X.+.+.+.+.X./ B k 3 + .                                             ",
"                                                . + 3 p k L ~ p.p.p.p.~ L k p 3 + .                                             ",
"                                                . + 7 s k L ~ f.m.M.M.d.I k s 7 + .                                             ",
"                                                . @ p l l L ~ l.N.B.B.k.Y l l p @ .                                             ",
"                                              1 b I E T m P t.s.j.h.h.i.L m T E I b 1                                           ",
"                                            . t ..;.c.%.V P 3.w.e.e.e.y.P V %.c.;...t .                                         ",
"                                            . y $.V.V.x.! Q 6.q.7.7.q.6.Q ! x.V.V.$.y .                                         ",
"                                            . y $.V.V.z.u.9.0.8.5.5.8.0.9.u.z.V.V.$.y .                                         ",
"                                            . 4 U O.k.g.a.q.8.4.G G 4.8.q.a.g.k.O.U 4 .                                         ",
"                                              - r D r.a.w.8.5.H w w H 5.8.w.a.r.D r -                                           ",
"                                              O . q J 1.2.<.G S & & S G <.2.1.J q . O                                           ",
"                                              O . % u F K D e q $ $ q e D K F u % . O                                           ",
"                                          = = % . o < 9 f 9 @ . % % . @ 9 s 9 < o . % = =                                       ",
"                                          = = % O O > 5 0 2 * O % % O * 2 0 2 > O O % = =                                       ",
"                                              = = = = = = = = = = = = = = = = = = = =                                           ",
"                                              = = = = = = = = = = = = = = = = = = = =                                           ",
"                                                                                                                                ",
"                                                                                                                                ",
"                                                                                                                                ",
"                                                                                                                                ",
"                                                                                                                                ",
"                                                                                                                                ",
"                                                                                                                                ",
"                                                                                                                                ",
"                                                                                                                                ",
"                                                                                                                                ",
"                                                                                                                                ",
"                                                                                                                                "
};