/* XPM */
static char *_4_4[] = {
/* columns rows colors chars-per-pixel */
"64 64 24 1 ",
"  c None",
". c #510F1A",
"X c #55382B",
"o c #21452C",
"O c #5C423C",
"+ c #6E4D3D",
"@ c #3A6B42",
"# c #832428",
"$ c #9E3931",
"% c #BB4F3C",
"& c #8D6B4E",
"* c #837767",
"= c #568C4D",
"- c #6A9E4F",
"; c #87B758",
": c #A98860",
"> c #BFA06B",
", c #D7BE75",
"< c #A49B8A",
"1 c #BEB8A6",
"2 c #EFDD93",
"3 c #DBD8C6",
"4 c #EDEBDB",
"5 c #FFFFF3",
/* pixels */
"                                                                ",
"                                                                ",
"                                                                ",
"                                                                ",
"                                                                ",
"                                                                ",
"                                                                ",
"                                                                ",
"                                                                ",
"                                                                ",
"                                                                ",
"                                                                ",
"                                                                ",
"                                                                ",
"                                                                ",
"                                     OOOO                       ",
"                                  OOO1134O                      ",
"                                 .<<1%3334O                     ",
"                                .#<%%13133O                     ",
"                                .#$%<11$31O                     ",
"                                 .$<1%%111O                     ",
"                                 .#$$%<1%1O                     ",
"                                  .#$$<%%<O                     ",
"                       OOOOOO      .##$$<$.                     ",
"                      O543331OOO   X..###.                      ",
"                     O5544333111OO X:&...                       ",
"                     O5444311%%11<.X>:X                         ",
"                    O34343$311%%$1$.>X                          ",
"                    O333333$$111%$$#.X                          ",
"                    O3333333%%111$$#.X                          ",
"                   O1333$1311%%<<*#.:X  OOO                     ",
"                   O1131$1111%%%<$#.>XOO134O                    ",
"                   O1%11%%11<1%$$#.:>.$%133O                    ",
"                   O1%11%%111<<$#.X>:.$1113O                    ",
"                   O<%$11%$1<<##. X,X.#$1$1O                    ",
"                   .<$$11$#$$$#.  X>X .#$#$.                    ",
"                   .#<#$<$###..  X,:X X....                     ",
"                    .#####...&:X X2:+X&X                        ",
"                     .....  X::>X+2>+:X                         ",
"                             X>,>+,>+:X==                       ",
"                           ===X>,+>>:X====                      ",
"                          ===@@X>>>:&o@==                       ",
"                         ===@;-X:>o:o;-@==                      ",
"                          ===@-X&o;o--@===                      ",
"                           =====o;-@=====                       ",
"                          =====@--@======                       ",
"                           = ========= =                        ",
"                              ==  ===                           ",
"                                   =                            ",
"                                                                ",
"                                                                ",
"                                                                ",
"                                                                ",
"                                                                ",
"                                                                ",
"                                                                ",
"                                                                ",
"                                                                ",
"                                                                ",
"                                                                ",
"                                                                ",
"                                                                ",
"                                                                ",
"                                                                "
};